<svg xmlns="http://www.w3.org/2000/svg" xmlns:xlink="http://www.w3.org/1999/xlink" viewBox="0 0 391.22 95.64"><defs><style>.cls-1{fill:#2e529e;}.cls-2{font-size:67.48px;fill:#1d1d1b;font-family:Arial-BoldMT, Arial;font-weight:700;}.cls-3{fill:#656565;}.cls-4{fill:url(#linear-gradient);}.cls-5{fill:url(#linear-gradient-2);}.cls-6{opacity:0.44;isolation:isolate;fill:url(#radial-gradient);}</style><linearGradient id="linear-gradient" x1="108.13" y1="1313.1" x2="178.66" y2="1252.43" gradientTransform="matrix(0.56, 0, 0, -0.57, -62.67, 755.46)" gradientUnits="userSpaceOnUse"><stop offset="0" stop-color="#5ca0d5"/><stop offset="1" stop-color="#316a99"/></linearGradient><linearGradient id="linear-gradient-2" x1="206.09" y1="1214.88" x2="180.7" y2="1250.81" gradientTransform="matrix(0.56, 0, 0, -0.57, -62.67, 755.46)" gradientUnits="userSpaceOnUse"><stop offset="0" stop-color="#ffd43e"/><stop offset="1" stop-color="#ffe975"/></linearGradient><radialGradient id="radial-gradient" cx="1554.06" cy="211.7" r="29.04" gradientTransform="matrix(0, -0.16, -0.68, 0, 180.04, 336.08)" gradientUnits="userSpaceOnUse"><stop offset="0" stop-color="#b8b8b8" stop-opacity="0.5"/><stop offset="1" stop-color="#7f8080" stop-opacity="0"/></radialGradient></defs><g id="Layer_2" data-name="Layer 2"><g id="Layer_1-2" data-name="Layer 1"><path class="cls-1" d="M195.33,15.26h5.91c.95,0,.95,0,.95.84,0,3.3,0,6.59,0,9.88,0,.56,0,.56.62.56h5.09v6h-5.08c-.26,0-.38.07-.37.32s0,.52,0,.78c0,4.68,0,9.35,0,14a6.45,6.45,0,0,0,.37,2.49,2.69,2.69,0,0,0,2.48,1.72L205,52v0c.53,0,1.05-.07,1.57-.12.06,0,.13-.15.14-.24a14.8,14.8,0,0,1,1.83-5.48,24,24,0,0,1,2.12-2.94c.44-.53,1.11-.9,1.58-1.41a11.8,11.8,0,0,1,2.29-1.58,6.11,6.11,0,0,1,.94-.35c.29-.12.57-.3.87-.41a14.76,14.76,0,0,1,6.19-.75,7.54,7.54,0,0,1,1.91.3,12,12,0,0,1,3.31,1.39c.21.15.58.16.58.5.27-.18.34.09.48.18A12.43,12.43,0,0,1,232,44.2a15.36,15.36,0,0,1,1.41,2.31,7.11,7.11,0,0,1,.57,1.05c.11.4.32.78.44,1.19a4.14,4.14,0,0,1,.07.81l.16-.25V50l.17-.22c.19,1.05.38,2,.55,3,.09.49.09.49.76.43V15.26h7.3V57.88H214.28c.09.55.13,1.07.26,1.56a10,10,0,0,0,1.57,3.4,6.42,6.42,0,0,0,2.9,2.25,6.74,6.74,0,0,0,4.09.18,5.06,5.06,0,0,0,3.06-2,15.9,15.9,0,0,0,1-1.51.44.44,0,0,1,.48-.28h7a11.93,11.93,0,0,1-1.38,3.57,18.12,18.12,0,0,1-1.18,1.81,18.22,18.22,0,0,1-1.63,1.66,13.36,13.36,0,0,1-1.52,1.28,10.87,10.87,0,0,1-1.9,1,23,23,0,0,1-2.94,1,11,11,0,0,1-3.62.24,17.11,17.11,0,0,1-2.37-.33,18.23,18.23,0,0,1-2.35-.83,8.18,8.18,0,0,1-1.33-.65c-.75-.46-1.49-1-2.21-1.47a7.26,7.26,0,0,1-.58-.65c-.09-.1-.27-.13-.35-.22-.65-.75-1.32-1.48-1.9-2.27a13,13,0,0,1-1.19-2c-.38-.8-.67-1.64-1-2.46a.42.42,0,0,1,0-.27c.05-.14.18-.28-.14-.25,0,0-.08-.12-.09-.19-.12-.6-.24-1.19-.33-1.79,0-.29-.16-.42-.5-.41-1.15,0-2.3.08-3.45.06a15,15,0,0,1-2.92-.24,3.63,3.63,0,0,1-2.09-.93c-.13-.16-.39-.23-.56-.37a5,5,0,0,1-1.72-2.93,14.78,14.78,0,0,1-.4-2.79c0-6,0-11.93,0-17.89,0-.61,0-.63-.68-.63h-3.54c-.32,0-.44-.07-.44-.38,0-1.75,0-3.5,0-5.25,0-.32.14-.37.44-.37,1.33,0,2.67,0,4,0,.55,0,.56,0,.56-.49V15.26Zm32.51,36.55a1,1,0,0,0,0-.29c-.16-.92-.32-1.84-.49-2.76,0-.06-.08-.12-.13-.18a2.33,2.33,0,0,1-.31-.32,6.81,6.81,0,0,0-1.7-2,6.76,6.76,0,0,0-7.34-.49,5.83,5.83,0,0,0-2.4,2.34,13.72,13.72,0,0,0-.92,2.12,10,10,0,0,0-.28,1.56Z"/><path class="cls-1" d="M188.88,57.89h-7.44v-.53q0-8.22,0-16.44a14.85,14.85,0,0,0-.35-3.87,5.13,5.13,0,0,0-2.43-3.28,8.51,8.51,0,0,0-1.48-.46,4.92,4.92,0,0,0-3.62.42,5,5,0,0,0-2.65,3.2c-.09.28-.15.56-.23.85l-.15-.1c-.27,6.74-.06,13.47-.14,20.21h-7.33V26.57h7.36v4.54l.08.05a1.29,1.29,0,0,0,.23-.24,12.52,12.52,0,0,1,2.22-3,14.05,14.05,0,0,1,1.41-1c.07-.05.15-.08.21-.12a.83.83,0,0,1,1-.17l0-.21a7.94,7.94,0,0,1,3.38-.55,9.05,9.05,0,0,1,3,.5,14.83,14.83,0,0,1,2,.85,8.14,8.14,0,0,1,2.72,2.38A9.54,9.54,0,0,1,188.32,33a18.79,18.79,0,0,1,.44,2.45c.09,1,.11,2,.11,3q0,9.57,0,19.13Z"/><text class="cls-2" transform="translate(248.22 57.89) scale(0.95 1)">4004</text><g id="g2303"><path id="path46" class="cls-3" d="M115.49,43.64q0-14.34-8-14.74a14.76,14.76,0,0,0-6.24,1,9.11,9.11,0,0,0-3.27,1.76V54.54c3.42,2.19,6.47,3.21,9.12,3.05Q115.49,57,115.49,43.64Zm6.61.4q0,7.29-3.38,12.11a12.34,12.34,0,0,1-10.43,5.6,18.24,18.24,0,0,1-10.35-3.2V79.31l-5.75-2.09V31.14a13.05,13.05,0,0,1,3.63-3.05A24.54,24.54,0,0,1,108.29,25l.08.08a11.41,11.41,0,0,1,10.34,5.61C121,34.13,122.1,38.59,122.1,44Z"/><path id="path48" class="cls-3" d="M157.22,57.66q0,9.78-1.93,13.55t-7.36,6a27.46,27.46,0,0,1-9.52,1.92l-.95-3.68A43.48,43.48,0,0,0,144.78,74a9.69,9.69,0,0,0,5.75-4.4q1.26-2.42,1.26-9.22V58.87a29.07,29.07,0,0,1-12.36,2.72A11.23,11.23,0,0,1,132,58.87a9.34,9.34,0,0,1-3.62-7.53V27l5.75-2V49.49a7.5,7.5,0,0,0,2.49,6A9.28,9.28,0,0,0,143,57.59a16,16,0,0,0,8.46-3.13V25.85h5.75Z"/><path id="path1948" class="cls-4" d="M35.43,7.16a48,48,0,0,0-8.27.72C19.84,9.19,18.51,12,18.51,17v6.72h17.3V26H12c-5,0-9.43,3.07-10.8,8.93a33.47,33.47,0,0,0,0,17.9c1.23,5.22,4.16,8.94,9.19,8.94h5.95v-8a11.1,11.1,0,0,1,10.8-11H44.44a8.8,8.8,0,0,0,8.65-8.95V17c0-4.77-4-8.36-8.65-9.15A51.8,51.8,0,0,0,35.43,7.16Zm-9.36,5.4a3.36,3.36,0,1,1-3.24,3.36A3.31,3.31,0,0,1,26.07,12.56Z"/><path id="path1950" class="cls-5" d="M55.24,26v7.82c0,6.06-5,11.17-10.8,11.17H27.16a8.91,8.91,0,0,0-8.65,9V70.71c0,4.77,4.08,7.58,8.65,9a28.42,28.42,0,0,0,17.28,0c4.35-1.28,8.65-3.87,8.65-9V64H35.81V61.76H61.74c5,0,6.9-3.58,8.64-8.94,1.81-5.52,1.73-10.82,0-17.9C69.14,29.82,66.77,26,61.74,26ZM45.53,68.47a3.36,3.36,0,1,1-3.25,3.35A3.3,3.3,0,0,1,45.53,68.47Z"/><path id="path1894" class="cls-6" d="M59.19,91.06c0,2.53-10.38,4.58-23.18,4.58s-23.18-2-23.18-4.58S23.21,86.49,36,86.49,59.19,88.54,59.19,91.06Z"/></g></g></g></svg>